<?xml version="1.0" encoding="utf-8"?>
<!-- Generator: Adobe Illustrator 19.0.0, SVG Export Plug-In . SVG Version: 6.00 Build 0)  -->
<svg version="1.1" id="图层_1" xmlns="http://www.w3.org/2000/svg" xmlns:xlink="http://www.w3.org/1999/xlink" x="0px" y="0px"
	 viewBox="0 0 16 16" style="enable-background:new 0 0 16 16;" xml:space="preserve">
<style type="text/css">
	.st0{fill-rule:evenodd;clip-rule:evenodd;fill:#686868;}
</style>
<g id="XMLID_9_">
	<g id="XMLID_68_">
		<path id="XMLID_69_" class="st0" d="M8,6.3c-0.4,0-0.7,0.3-0.7,0.7c0,0.4,0.3,0.7,0.7,0.7s0.7-0.3,0.7-0.7C8.7,6.7,8.4,6.3,8,6.3z
			 M4.6,6.3c-0.4,0-0.7,0.3-0.7,0.7c0,0.4,0.3,0.7,0.7,0.7s0.7-0.3,0.7-0.7C5.3,6.7,5,6.3,4.6,6.3z M14,2H2C1.4,2,1,2.4,1,3v8.2
			c0,0.5,0.4,1,1,1h4.2L8,14.1l1.9-1.9H14c0.5,0,1-0.4,1-1V3C15,2.4,14.6,2,14,2z M14,10.7c0,0.3-0.2,0.5-0.5,0.5H9.4L8,12.4
			l-1.4-1.2H2.4C2.2,11.2,2,11,2,10.7V3.4C2,3.2,2.2,3,2.4,3h11.1C13.8,3,14,3.2,14,3.4V10.7z M11.4,6.3c-0.4,0-0.7,0.3-0.7,0.7
			c0,0.4,0.3,0.7,0.7,0.7s0.7-0.3,0.7-0.7C12.1,6.7,11.8,6.3,11.4,6.3z"/>
	</g>
</g>
</svg>
