<?xml version="1.0" encoding="utf-8"?>
<!-- Generator: Adobe Illustrator 19.0.0, SVG Export Plug-In . SVG Version: 6.00 Build 0)  -->
<svg version="1.1" id="图层_1" xmlns="http://www.w3.org/2000/svg" xmlns:xlink="http://www.w3.org/1999/xlink" x="0px" y="0px"
	 viewBox="0 0 16 16" style="enable-background:new 0 0 16 16;" xml:space="preserve">
<style type="text/css">
	.st0{fill-rule:evenodd;clip-rule:evenodd;fill:#666666;}
</style>
<path id="XMLID_3_" class="st0" d="M15,3.7L14.8,6c0,0.1-0.2,0.2-0.3,0.2l-2.1-1c-0.1,0-0.2-0.2-0.2-0.3l1.1-0.6
	c-1.2-1.6-3-2.6-5.1-2.6C4.6,1.6,1.7,4.5,1.7,8c0,3.5,2.9,6.4,6.4,6.4c2.4,0,4.5-1.3,5.6-3.3l0.5,0.5c-1.2,2.1-3.5,3.5-6.1,3.5
	C4.2,15.1,1,11.9,1,8c0-3.9,3.2-7.1,7.1-7.1c2.4,0,4.5,1.2,5.8,3l0.9-0.5C14.9,3.4,15,3.5,15,3.7z"/>
</svg>
